M48
; DRILL file KiCad 10.0.3 date 2026-05-16T09:29:00
; FORMAT={-:-/ absolute / metric / decimal}
; #@! TF.CreationDate,2026-05-16T09:29:00+05:30
; #@! TF.GenerationSoftware,Kicad,Pcbnew,10.0.3
; #@! TF.FileFunction,MixedPlating,1,2
FMAT,2
METRIC
; #@! TA.AperFunction,Plated,PTH,ComponentDrill
T1C1.000
; #@! TA.AperFunction,NonPlated,NPTH,ComponentDrill
T2C2.700
%
G90
G05
T1
X-0.89Y-6.73
X-0.89Y-9.27
X1.65Y-6.73
X1.65Y-9.27
X4.19Y-6.73
X4.19Y-9.27
X4.75Y-25.5
X6.73Y-6.73
X6.73Y-9.27
X7.25Y-25.5
X9.27Y-6.73
X9.27Y-9.27
X11.81Y-6.73
X11.81Y-9.27
X13.75Y-25.5
X14.35Y-6.73
X14.35Y-9.27
X16.25Y-25.5
X16.89Y-6.73
X16.89Y-9.27
X22.75Y-25.5
X25.25Y-25.5
X31.75Y-25.5
X34.25Y-25.5
X40.75Y-25.5
X43.25Y-25.5
T2
X3.0Y-3.0
X3.0Y-27.0
X47.0Y-3.0
X47.0Y-27.0
M30
