%TF.GenerationSoftware,KiCad,Pcbnew,10.0.3*%
%TF.CreationDate,2026-05-16T11:15:00+05:30*%
%TF.ProjectId,urine_dipstick_analyzer,7572696e-655f-4646-9970-737469636b5f,rev?*%
%TF.SameCoordinates,Original*%
%TF.FileFunction,Copper,L2,Bot*%
%TF.FilePolarity,Positive*%
%FSLAX46Y46*%
G04 Gerber Fmt 4.6, Leading zero omitted, Abs format (unit mm)*
G04 Created by KiCad (PCBNEW 10.0.3) date 2026-05-16 11:15:00*
%MOMM*%
%LPD*%
G01*
G04 APERTURE LIST*
%TA.AperFunction,WasherPad*%
%ADD10C,5.000000*%
%TD*%
%TA.AperFunction,ComponentPad*%
%ADD11C,1.700000*%
%TD*%
%TA.AperFunction,ComponentPad*%
%ADD12C,1.800000*%
%TD*%
%TA.AperFunction,ViaPad*%
%ADD13C,0.600000*%
%TD*%
%TA.AperFunction,Conductor*%
%ADD14C,0.250000*%
%TD*%
G04 APERTURE END LIST*
D10*
%TO.P,MH1,*%
%TO.N,*%
X3000000Y-3000000D03*
%TD*%
%TO.P,MH2,*%
%TO.N,*%
X47000000Y-3000000D03*
%TD*%
%TO.P,MH3,*%
%TO.N,*%
X3000000Y-27000000D03*
%TD*%
%TO.P,MH4,*%
%TO.N,*%
X47000000Y-27000000D03*
%TD*%
D11*
%TO.P,U1a,1*%
%TO.N,GND*%
X-890000Y-6730000D03*
%TO.P,U1a,2*%
X-890000Y-9270000D03*
%TO.P,U1a,3*%
%TO.N,VBUS*%
X1650000Y-6730000D03*
%TO.P,U1a,4*%
X1650000Y-9270000D03*
%TO.P,U1a,5*%
%TO.N,N/C*%
X4190000Y-6730000D03*
%TO.P,U1a,6*%
X4190000Y-9270000D03*
%TO.P,U1a,7*%
X6730000Y-6730000D03*
%TO.P,U1a,8*%
X6730000Y-9270000D03*
%TO.P,U1a,9*%
X9270000Y-6730000D03*
%TO.P,U1a,10*%
X9270000Y-9270000D03*
%TO.P,U1a,11*%
X11810000Y-6730000D03*
%TO.P,U1a,12*%
X11810000Y-9270000D03*
%TO.P,U1a,13*%
X14350000Y-6730000D03*
%TO.P,U1a,14*%
X14350000Y-9270000D03*
%TO.P,U1a,15*%
X16890000Y-6730000D03*
%TO.P,U1a,16*%
X16890000Y-9270000D03*
%TD*%
D12*
%TO.P,J1,1*%
%TO.N,VBAT*%
X4750000Y-25500000D03*
%TO.P,J1,2*%
%TO.N,GND*%
X7250000Y-25500000D03*
%TD*%
%TO.P,J2,1*%
%TO.N,+9V*%
X13750000Y-25500000D03*
%TO.P,J2,2*%
%TO.N,GND*%
X16250000Y-25500000D03*
%TD*%
%TO.P,J3,1*%
%TO.N,+3V3*%
X22750000Y-25500000D03*
%TO.P,J3,2*%
%TO.N,GND*%
X25250000Y-25500000D03*
%TD*%
%TO.P,J4,1*%
%TO.N,SDA*%
X31750000Y-25500000D03*
%TO.P,J4,2*%
%TO.N,SCL*%
X34250000Y-25500000D03*
%TD*%
%TO.P,J5,1*%
%TO.N,VMOT*%
X40750000Y-25500000D03*
%TO.P,J5,2*%
%TO.N,GND*%
X43250000Y-25500000D03*
%TD*%
D13*
%TO.N,VBUS*%
X17175000Y-14000000D03*
X17050000Y-18000000D03*
%TO.N,+3V3*%
X25050000Y-18000000D03*
X32825000Y-12000000D03*
X32825000Y-12000000D03*
X34825000Y-12000000D03*
X34825000Y-12000000D03*
X37175000Y-16000000D03*
%TO.N,CHRG_STAT*%
X20550000Y-11000000D03*
X20550000Y-11500000D03*
%TO.N,+9V*%
X33175000Y-18000000D03*
%TD*%
%TO.N,VBUS*%
D14*
X17175000Y-14000000D02*
X17050000Y-14000000D01*
X17050000Y-14000000D02*
X17050000Y-18000000D01*
%TO.N,+3V3*%
X25050000Y-18000000D02*
X32825000Y-18000000D01*
X32825000Y-18000000D02*
X32825000Y-12000000D01*
X32825000Y-12000000D02*
X34825000Y-12000000D01*
X34825000Y-12000000D02*
X37175000Y-12000000D01*
X37175000Y-12000000D02*
X37175000Y-16000000D01*
%TO.N,CHRG_STAT*%
X20550000Y-11000000D02*
X20550000Y-11500000D01*
%TO.N,+9V*%
X33175000Y-18000000D02*
X33175000Y-25500000D01*
X33175000Y-25500000D02*
X13750000Y-25500000D01*
%TD*%
M02*
