%TF.GenerationSoftware,KiCad,Pcbnew,10.0.3*%
%TF.CreationDate,2026-05-16T12:11:54+05:30*%
%TF.ProjectId,urine_dipstick_analyzer,7572696e-655f-4646-9970-737469636b5f,rev?*%
%TF.SameCoordinates,Original*%
%TF.FileFunction,Legend,Top*%
%TF.FilePolarity,Positive*%
%FSLAX46Y46*%
G04 Gerber Fmt 4.6, Leading zero omitted, Abs format (unit mm)*
G04 Created by KiCad (PCBNEW 10.0.3) date 2026-05-16 12:11:54*
%MOMM*%
%LPD*%
G01*
G04 APERTURE LIST*
%ADD10C,0.150000*%
G04 APERTURE END LIST*
D10*
X2336779Y2045180D02*
X2336779Y1235657D01*
X2336779Y1235657D02*
X2384398Y1140419D01*
X2384398Y1140419D02*
X2432017Y1092800D01*
X2432017Y1092800D02*
X2527255Y1045180D01*
X2527255Y1045180D02*
X2717731Y1045180D01*
X2717731Y1045180D02*
X2812969Y1092800D01*
X2812969Y1092800D02*
X2860588Y1140419D01*
X2860588Y1140419D02*
X2908207Y1235657D01*
X2908207Y1235657D02*
X2908207Y2045180D01*
X3384398Y1045180D02*
X3384398Y2045180D01*
X3384398Y2045180D02*
X3622493Y2045180D01*
X3622493Y2045180D02*
X3765350Y1997561D01*
X3765350Y1997561D02*
X3860588Y1902323D01*
X3860588Y1902323D02*
X3908207Y1807085D01*
X3908207Y1807085D02*
X3955826Y1616609D01*
X3955826Y1616609D02*
X3955826Y1473752D01*
X3955826Y1473752D02*
X3908207Y1283276D01*
X3908207Y1283276D02*
X3860588Y1188038D01*
X3860588Y1188038D02*
X3765350Y1092800D01*
X3765350Y1092800D02*
X3622493Y1045180D01*
X3622493Y1045180D02*
X3384398Y1045180D01*
X4336779Y1330895D02*
X4812969Y1330895D01*
X4241541Y1045180D02*
X4574874Y2045180D01*
X4574874Y2045180D02*
X4908207Y1045180D01*
X5241541Y1426133D02*
X6003446Y1426133D01*
X6479636Y1045180D02*
X6479636Y2045180D01*
X6479636Y2045180D02*
X6860588Y2045180D01*
X6860588Y2045180D02*
X6955826Y1997561D01*
X6955826Y1997561D02*
X7003445Y1949942D01*
X7003445Y1949942D02*
X7051064Y1854704D01*
X7051064Y1854704D02*
X7051064Y1711847D01*
X7051064Y1711847D02*
X7003445Y1616609D01*
X7003445Y1616609D02*
X6955826Y1568990D01*
X6955826Y1568990D02*
X6860588Y1521371D01*
X6860588Y1521371D02*
X6479636Y1521371D01*
X8051064Y1045180D02*
X7717731Y1521371D01*
X7479636Y1045180D02*
X7479636Y2045180D01*
X7479636Y2045180D02*
X7860588Y2045180D01*
X7860588Y2045180D02*
X7955826Y1997561D01*
X7955826Y1997561D02*
X8003445Y1949942D01*
X8003445Y1949942D02*
X8051064Y1854704D01*
X8051064Y1854704D02*
X8051064Y1711847D01*
X8051064Y1711847D02*
X8003445Y1616609D01*
X8003445Y1616609D02*
X7955826Y1568990D01*
X7955826Y1568990D02*
X7860588Y1521371D01*
X7860588Y1521371D02*
X7479636Y1521371D01*
X8670112Y2045180D02*
X8860588Y2045180D01*
X8860588Y2045180D02*
X8955826Y1997561D01*
X8955826Y1997561D02*
X9051064Y1902323D01*
X9051064Y1902323D02*
X9098683Y1711847D01*
X9098683Y1711847D02*
X9098683Y1378514D01*
X9098683Y1378514D02*
X9051064Y1188038D01*
X9051064Y1188038D02*
X8955826Y1092800D01*
X8955826Y1092800D02*
X8860588Y1045180D01*
X8860588Y1045180D02*
X8670112Y1045180D01*
X8670112Y1045180D02*
X8574874Y1092800D01*
X8574874Y1092800D02*
X8479636Y1188038D01*
X8479636Y1188038D02*
X8432017Y1378514D01*
X8432017Y1378514D02*
X8432017Y1711847D01*
X8432017Y1711847D02*
X8479636Y1902323D01*
X8479636Y1902323D02*
X8574874Y1997561D01*
X8574874Y1997561D02*
X8670112Y2045180D01*
X9384398Y2045180D02*
X9955826Y2045180D01*
X9670112Y1045180D02*
X9670112Y2045180D01*
X10479636Y2045180D02*
X10670112Y2045180D01*
X10670112Y2045180D02*
X10765350Y1997561D01*
X10765350Y1997561D02*
X10860588Y1902323D01*
X10860588Y1902323D02*
X10908207Y1711847D01*
X10908207Y1711847D02*
X10908207Y1378514D01*
X10908207Y1378514D02*
X10860588Y1188038D01*
X10860588Y1188038D02*
X10765350Y1092800D01*
X10765350Y1092800D02*
X10670112Y1045180D01*
X10670112Y1045180D02*
X10479636Y1045180D01*
X10479636Y1045180D02*
X10384398Y1092800D01*
X10384398Y1092800D02*
X10289160Y1188038D01*
X10289160Y1188038D02*
X10241541Y1378514D01*
X10241541Y1378514D02*
X10241541Y1711847D01*
X10241541Y1711847D02*
X10289160Y1902323D01*
X10289160Y1902323D02*
X10384398Y1997561D01*
X10384398Y1997561D02*
X10479636Y2045180D01*
X11336779Y1426133D02*
X12098684Y1426133D01*
X12765350Y2045180D02*
X12860588Y2045180D01*
X12860588Y2045180D02*
X12955826Y1997561D01*
X12955826Y1997561D02*
X13003445Y1949942D01*
X13003445Y1949942D02*
X13051064Y1854704D01*
X13051064Y1854704D02*
X13098683Y1664228D01*
X13098683Y1664228D02*
X13098683Y1426133D01*
X13098683Y1426133D02*
X13051064Y1235657D01*
X13051064Y1235657D02*
X13003445Y1140419D01*
X13003445Y1140419D02*
X12955826Y1092800D01*
X12955826Y1092800D02*
X12860588Y1045180D01*
X12860588Y1045180D02*
X12765350Y1045180D01*
X12765350Y1045180D02*
X12670112Y1092800D01*
X12670112Y1092800D02*
X12622493Y1140419D01*
X12622493Y1140419D02*
X12574874Y1235657D01*
X12574874Y1235657D02*
X12527255Y1426133D01*
X12527255Y1426133D02*
X12527255Y1664228D01*
X12527255Y1664228D02*
X12574874Y1854704D01*
X12574874Y1854704D02*
X12622493Y1949942D01*
X12622493Y1949942D02*
X12670112Y1997561D01*
X12670112Y1997561D02*
X12765350Y2045180D01*
X13717731Y2045180D02*
X13812969Y2045180D01*
X13812969Y2045180D02*
X13908207Y1997561D01*
X13908207Y1997561D02*
X13955826Y1949942D01*
X13955826Y1949942D02*
X14003445Y1854704D01*
X14003445Y1854704D02*
X14051064Y1664228D01*
X14051064Y1664228D02*
X14051064Y1426133D01*
X14051064Y1426133D02*
X14003445Y1235657D01*
X14003445Y1235657D02*
X13955826Y1140419D01*
X13955826Y1140419D02*
X13908207Y1092800D01*
X13908207Y1092800D02*
X13812969Y1045180D01*
X13812969Y1045180D02*
X13717731Y1045180D01*
X13717731Y1045180D02*
X13622493Y1092800D01*
X13622493Y1092800D02*
X13574874Y1140419D01*
X13574874Y1140419D02*
X13527255Y1235657D01*
X13527255Y1235657D02*
X13479636Y1426133D01*
X13479636Y1426133D02*
X13479636Y1664228D01*
X13479636Y1664228D02*
X13527255Y1854704D01*
X13527255Y1854704D02*
X13574874Y1949942D01*
X13574874Y1949942D02*
X13622493Y1997561D01*
X13622493Y1997561D02*
X13717731Y2045180D01*
X15003445Y1045180D02*
X14432017Y1045180D01*
X14717731Y1045180D02*
X14717731Y2045180D01*
X14717731Y2045180D02*
X14622493Y1902323D01*
X14622493Y1902323D02*
X14527255Y1807085D01*
X14527255Y1807085D02*
X14432017Y1759466D01*
X16193922Y1045180D02*
X16193922Y2045180D01*
X16193922Y2045180D02*
X16574874Y2045180D01*
X16574874Y2045180D02*
X16670112Y1997561D01*
X16670112Y1997561D02*
X16717731Y1949942D01*
X16717731Y1949942D02*
X16765350Y1854704D01*
X16765350Y1854704D02*
X16765350Y1711847D01*
X16765350Y1711847D02*
X16717731Y1616609D01*
X16717731Y1616609D02*
X16670112Y1568990D01*
X16670112Y1568990D02*
X16574874Y1521371D01*
X16574874Y1521371D02*
X16193922Y1521371D01*
X17765350Y1140419D02*
X17717731Y1092800D01*
X17717731Y1092800D02*
X17574874Y1045180D01*
X17574874Y1045180D02*
X17479636Y1045180D01*
X17479636Y1045180D02*
X17336779Y1092800D01*
X17336779Y1092800D02*
X17241541Y1188038D01*
X17241541Y1188038D02*
X17193922Y1283276D01*
X17193922Y1283276D02*
X17146303Y1473752D01*
X17146303Y1473752D02*
X17146303Y1616609D01*
X17146303Y1616609D02*
X17193922Y1807085D01*
X17193922Y1807085D02*
X17241541Y1902323D01*
X17241541Y1902323D02*
X17336779Y1997561D01*
X17336779Y1997561D02*
X17479636Y2045180D01*
X17479636Y2045180D02*
X17574874Y2045180D01*
X17574874Y2045180D02*
X17717731Y1997561D01*
X17717731Y1997561D02*
X17765350Y1949942D01*
X18527255Y1568990D02*
X18670112Y1521371D01*
X18670112Y1521371D02*
X18717731Y1473752D01*
X18717731Y1473752D02*
X18765350Y1378514D01*
X18765350Y1378514D02*
X18765350Y1235657D01*
X18765350Y1235657D02*
X18717731Y1140419D01*
X18717731Y1140419D02*
X18670112Y1092800D01*
X18670112Y1092800D02*
X18574874Y1045180D01*
X18574874Y1045180D02*
X18193922Y1045180D01*
X18193922Y1045180D02*
X18193922Y2045180D01*
X18193922Y2045180D02*
X18527255Y2045180D01*
X18527255Y2045180D02*
X18622493Y1997561D01*
X18622493Y1997561D02*
X18670112Y1949942D01*
X18670112Y1949942D02*
X18717731Y1854704D01*
X18717731Y1854704D02*
X18717731Y1759466D01*
X18717731Y1759466D02*
X18670112Y1664228D01*
X18670112Y1664228D02*
X18622493Y1616609D01*
X18622493Y1616609D02*
X18527255Y1568990D01*
X18527255Y1568990D02*
X18193922Y1568990D01*
X19717731Y1045180D02*
X19146303Y1045180D01*
X19432017Y1045180D02*
X19432017Y2045180D01*
X19432017Y2045180D02*
X19336779Y1902323D01*
X19336779Y1902323D02*
X19241541Y1807085D01*
X19241541Y1807085D02*
X19146303Y1759466D01*
X20908208Y1045180D02*
X20908208Y2045180D01*
X20908208Y2045180D02*
X21289160Y2045180D01*
X21289160Y2045180D02*
X21384398Y1997561D01*
X21384398Y1997561D02*
X21432017Y1949942D01*
X21432017Y1949942D02*
X21479636Y1854704D01*
X21479636Y1854704D02*
X21479636Y1711847D01*
X21479636Y1711847D02*
X21432017Y1616609D01*
X21432017Y1616609D02*
X21384398Y1568990D01*
X21384398Y1568990D02*
X21289160Y1521371D01*
X21289160Y1521371D02*
X20908208Y1521371D01*
X22051065Y1045180D02*
X21955827Y1092800D01*
X21955827Y1092800D02*
X21908208Y1140419D01*
X21908208Y1140419D02*
X21860589Y1235657D01*
X21860589Y1235657D02*
X21860589Y1521371D01*
X21860589Y1521371D02*
X21908208Y1616609D01*
X21908208Y1616609D02*
X21955827Y1664228D01*
X21955827Y1664228D02*
X22051065Y1711847D01*
X22051065Y1711847D02*
X22193922Y1711847D01*
X22193922Y1711847D02*
X22289160Y1664228D01*
X22289160Y1664228D02*
X22336779Y1616609D01*
X22336779Y1616609D02*
X22384398Y1521371D01*
X22384398Y1521371D02*
X22384398Y1235657D01*
X22384398Y1235657D02*
X22336779Y1140419D01*
X22336779Y1140419D02*
X22289160Y1092800D01*
X22289160Y1092800D02*
X22193922Y1045180D01*
X22193922Y1045180D02*
X22051065Y1045180D01*
X22717732Y1711847D02*
X22908208Y1045180D01*
X22908208Y1045180D02*
X23098684Y1521371D01*
X23098684Y1521371D02*
X23289160Y1045180D01*
X23289160Y1045180D02*
X23479636Y1711847D01*
X24241541Y1092800D02*
X24146303Y1045180D01*
X24146303Y1045180D02*
X23955827Y1045180D01*
X23955827Y1045180D02*
X23860589Y1092800D01*
X23860589Y1092800D02*
X23812970Y1188038D01*
X23812970Y1188038D02*
X23812970Y1568990D01*
X23812970Y1568990D02*
X23860589Y1664228D01*
X23860589Y1664228D02*
X23955827Y1711847D01*
X23955827Y1711847D02*
X24146303Y1711847D01*
X24146303Y1711847D02*
X24241541Y1664228D01*
X24241541Y1664228D02*
X24289160Y1568990D01*
X24289160Y1568990D02*
X24289160Y1473752D01*
X24289160Y1473752D02*
X23812970Y1378514D01*
X24717732Y1045180D02*
X24717732Y1711847D01*
X24717732Y1521371D02*
X24765351Y1616609D01*
X24765351Y1616609D02*
X24812970Y1664228D01*
X24812970Y1664228D02*
X24908208Y1711847D01*
X24908208Y1711847D02*
X25003446Y1711847D01*
X26098685Y1045180D02*
X26098685Y2045180D01*
X26098685Y1568990D02*
X26670113Y1568990D01*
X26670113Y1045180D02*
X26670113Y2045180D01*
X27574875Y1711847D02*
X27574875Y1045180D01*
X27146304Y1711847D02*
X27146304Y1188038D01*
X27146304Y1188038D02*
X27193923Y1092800D01*
X27193923Y1092800D02*
X27289161Y1045180D01*
X27289161Y1045180D02*
X27432018Y1045180D01*
X27432018Y1045180D02*
X27527256Y1092800D01*
X27527256Y1092800D02*
X27574875Y1140419D01*
X28051066Y1045180D02*
X28051066Y2045180D01*
X28051066Y1664228D02*
X28146304Y1711847D01*
X28146304Y1711847D02*
X28336780Y1711847D01*
X28336780Y1711847D02*
X28432018Y1664228D01*
X28432018Y1664228D02*
X28479637Y1616609D01*
X28479637Y1616609D02*
X28527256Y1521371D01*
X28527256Y1521371D02*
X28527256Y1235657D01*
X28527256Y1235657D02*
X28479637Y1140419D01*
X28479637Y1140419D02*
X28432018Y1092800D01*
X28432018Y1092800D02*
X28336780Y1045180D01*
X28336780Y1045180D02*
X28146304Y1045180D01*
X28146304Y1045180D02*
X28051066Y1092800D01*
X29622495Y1711847D02*
X29860590Y1045180D01*
X29860590Y1045180D02*
X30098685Y1711847D01*
X31003447Y1045180D02*
X30432019Y1045180D01*
X30717733Y1045180D02*
X30717733Y2045180D01*
X30717733Y2045180D02*
X30622495Y1902323D01*
X30622495Y1902323D02*
X30527257Y1807085D01*
X30527257Y1807085D02*
X30432019Y1759466D01*
X31432019Y1140419D02*
X31479638Y1092800D01*
X31479638Y1092800D02*
X31432019Y1045180D01*
X31432019Y1045180D02*
X31384400Y1092800D01*
X31384400Y1092800D02*
X31432019Y1140419D01*
X31432019Y1140419D02*
X31432019Y1045180D01*
X32098685Y2045180D02*
X32193923Y2045180D01*
X32193923Y2045180D02*
X32289161Y1997561D01*
X32289161Y1997561D02*
X32336780Y1949942D01*
X32336780Y1949942D02*
X32384399Y1854704D01*
X32384399Y1854704D02*
X32432018Y1664228D01*
X32432018Y1664228D02*
X32432018Y1426133D01*
X32432018Y1426133D02*
X32384399Y1235657D01*
X32384399Y1235657D02*
X32336780Y1140419D01*
X32336780Y1140419D02*
X32289161Y1092800D01*
X32289161Y1092800D02*
X32193923Y1045180D01*
X32193923Y1045180D02*
X32098685Y1045180D01*
X32098685Y1045180D02*
X32003447Y1092800D01*
X32003447Y1092800D02*
X31955828Y1140419D01*
X31955828Y1140419D02*
X31908209Y1235657D01*
X31908209Y1235657D02*
X31860590Y1426133D01*
X31860590Y1426133D02*
X31860590Y1664228D01*
X31860590Y1664228D02*
X31908209Y1854704D01*
X31908209Y1854704D02*
X31955828Y1949942D01*
X31955828Y1949942D02*
X32003447Y1997561D01*
X32003447Y1997561D02*
X32098685Y2045180D01*
X7289160Y-4062295D02*
X7289160Y-4709914D01*
X7289160Y-4709914D02*
X7327255Y-4786104D01*
X7327255Y-4786104D02*
X7365350Y-4824200D01*
X7365350Y-4824200D02*
X7441541Y-4862295D01*
X7441541Y-4862295D02*
X7593922Y-4862295D01*
X7593922Y-4862295D02*
X7670112Y-4824200D01*
X7670112Y-4824200D02*
X7708207Y-4786104D01*
X7708207Y-4786104D02*
X7746303Y-4709914D01*
X7746303Y-4709914D02*
X7746303Y-4062295D01*
X8089159Y-4824200D02*
X8203445Y-4862295D01*
X8203445Y-4862295D02*
X8393921Y-4862295D01*
X8393921Y-4862295D02*
X8470112Y-4824200D01*
X8470112Y-4824200D02*
X8508207Y-4786104D01*
X8508207Y-4786104D02*
X8546302Y-4709914D01*
X8546302Y-4709914D02*
X8546302Y-4633723D01*
X8546302Y-4633723D02*
X8508207Y-4557533D01*
X8508207Y-4557533D02*
X8470112Y-4519438D01*
X8470112Y-4519438D02*
X8393921Y-4481342D01*
X8393921Y-4481342D02*
X8241540Y-4443247D01*
X8241540Y-4443247D02*
X8165350Y-4405152D01*
X8165350Y-4405152D02*
X8127255Y-4367057D01*
X8127255Y-4367057D02*
X8089159Y-4290866D01*
X8089159Y-4290866D02*
X8089159Y-4214676D01*
X8089159Y-4214676D02*
X8127255Y-4138485D01*
X8127255Y-4138485D02*
X8165350Y-4100390D01*
X8165350Y-4100390D02*
X8241540Y-4062295D01*
X8241540Y-4062295D02*
X8432017Y-4062295D01*
X8432017Y-4062295D02*
X8546302Y-4100390D01*
X9155826Y-4443247D02*
X9270112Y-4481342D01*
X9270112Y-4481342D02*
X9308207Y-4519438D01*
X9308207Y-4519438D02*
X9346303Y-4595628D01*
X9346303Y-4595628D02*
X9346303Y-4709914D01*
X9346303Y-4709914D02*
X9308207Y-4786104D01*
X9308207Y-4786104D02*
X9270112Y-4824200D01*
X9270112Y-4824200D02*
X9193922Y-4862295D01*
X9193922Y-4862295D02*
X8889160Y-4862295D01*
X8889160Y-4862295D02*
X8889160Y-4062295D01*
X8889160Y-4062295D02*
X9155826Y-4062295D01*
X9155826Y-4062295D02*
X9232017Y-4100390D01*
X9232017Y-4100390D02*
X9270112Y-4138485D01*
X9270112Y-4138485D02*
X9308207Y-4214676D01*
X9308207Y-4214676D02*
X9308207Y-4290866D01*
X9308207Y-4290866D02*
X9270112Y-4367057D01*
X9270112Y-4367057D02*
X9232017Y-4405152D01*
X9232017Y-4405152D02*
X9155826Y-4443247D01*
X9155826Y-4443247D02*
X8889160Y-4443247D01*
X9689160Y-4557533D02*
X10298684Y-4557533D01*
X11136779Y-4786104D02*
X11098683Y-4824200D01*
X11098683Y-4824200D02*
X10984398Y-4862295D01*
X10984398Y-4862295D02*
X10908207Y-4862295D01*
X10908207Y-4862295D02*
X10793921Y-4824200D01*
X10793921Y-4824200D02*
X10717731Y-4748009D01*
X10717731Y-4748009D02*
X10679636Y-4671819D01*
X10679636Y-4671819D02*
X10641540Y-4519438D01*
X10641540Y-4519438D02*
X10641540Y-4405152D01*
X10641540Y-4405152D02*
X10679636Y-4252771D01*
X10679636Y-4252771D02*
X10717731Y-4176580D01*
X10717731Y-4176580D02*
X10793921Y-4100390D01*
X10793921Y-4100390D02*
X10908207Y-4062295D01*
X10908207Y-4062295D02*
X10984398Y-4062295D01*
X10984398Y-4062295D02*
X11098683Y-4100390D01*
X11098683Y-4100390D02*
X11136779Y-4138485D01*
X22746303Y-4786104D02*
X22708207Y-4824200D01*
X22708207Y-4824200D02*
X22593922Y-4862295D01*
X22593922Y-4862295D02*
X22517731Y-4862295D01*
X22517731Y-4862295D02*
X22403445Y-4824200D01*
X22403445Y-4824200D02*
X22327255Y-4748009D01*
X22327255Y-4748009D02*
X22289160Y-4671819D01*
X22289160Y-4671819D02*
X22251064Y-4519438D01*
X22251064Y-4519438D02*
X22251064Y-4405152D01*
X22251064Y-4405152D02*
X22289160Y-4252771D01*
X22289160Y-4252771D02*
X22327255Y-4176580D01*
X22327255Y-4176580D02*
X22403445Y-4100390D01*
X22403445Y-4100390D02*
X22517731Y-4062295D01*
X22517731Y-4062295D02*
X22593922Y-4062295D01*
X22593922Y-4062295D02*
X22708207Y-4100390D01*
X22708207Y-4100390D02*
X22746303Y-4138485D01*
X23089160Y-4862295D02*
X23089160Y-4062295D01*
X23089160Y-4443247D02*
X23546303Y-4443247D01*
X23546303Y-4862295D02*
X23546303Y-4062295D01*
X23889159Y-4633723D02*
X24270112Y-4633723D01*
X23812969Y-4862295D02*
X24079636Y-4062295D01*
X24079636Y-4062295D02*
X24346302Y-4862295D01*
X25070112Y-4862295D02*
X24803445Y-4481342D01*
X24612969Y-4862295D02*
X24612969Y-4062295D01*
X24612969Y-4062295D02*
X24917731Y-4062295D01*
X24917731Y-4062295D02*
X24993921Y-4100390D01*
X24993921Y-4100390D02*
X25032016Y-4138485D01*
X25032016Y-4138485D02*
X25070112Y-4214676D01*
X25070112Y-4214676D02*
X25070112Y-4328961D01*
X25070112Y-4328961D02*
X25032016Y-4405152D01*
X25032016Y-4405152D02*
X24993921Y-4443247D01*
X24993921Y-4443247D02*
X24917731Y-4481342D01*
X24917731Y-4481342D02*
X24612969Y-4481342D01*
X25832016Y-4100390D02*
X25755826Y-4062295D01*
X25755826Y-4062295D02*
X25641540Y-4062295D01*
X25641540Y-4062295D02*
X25527254Y-4100390D01*
X25527254Y-4100390D02*
X25451064Y-4176580D01*
X25451064Y-4176580D02*
X25412969Y-4252771D01*
X25412969Y-4252771D02*
X25374873Y-4405152D01*
X25374873Y-4405152D02*
X25374873Y-4519438D01*
X25374873Y-4519438D02*
X25412969Y-4671819D01*
X25412969Y-4671819D02*
X25451064Y-4748009D01*
X25451064Y-4748009D02*
X25527254Y-4824200D01*
X25527254Y-4824200D02*
X25641540Y-4862295D01*
X25641540Y-4862295D02*
X25717731Y-4862295D01*
X25717731Y-4862295D02*
X25832016Y-4824200D01*
X25832016Y-4824200D02*
X25870112Y-4786104D01*
X25870112Y-4786104D02*
X25870112Y-4519438D01*
X25870112Y-4519438D02*
X25717731Y-4519438D01*
X26212969Y-4443247D02*
X26479635Y-4443247D01*
X26593921Y-4862295D02*
X26212969Y-4862295D01*
X26212969Y-4862295D02*
X26212969Y-4062295D01*
X26212969Y-4062295D02*
X26593921Y-4062295D01*
X27393922Y-4862295D02*
X27127255Y-4481342D01*
X26936779Y-4862295D02*
X26936779Y-4062295D01*
X26936779Y-4062295D02*
X27241541Y-4062295D01*
X27241541Y-4062295D02*
X27317731Y-4100390D01*
X27317731Y-4100390D02*
X27355826Y-4138485D01*
X27355826Y-4138485D02*
X27393922Y-4214676D01*
X27393922Y-4214676D02*
X27393922Y-4328961D01*
X27393922Y-4328961D02*
X27355826Y-4405152D01*
X27355826Y-4405152D02*
X27317731Y-4443247D01*
X27317731Y-4443247D02*
X27241541Y-4481342D01*
X27241541Y-4481342D02*
X26936779Y-4481342D01*
X36555826Y-4443247D02*
X36289160Y-4443247D01*
X36289160Y-4862295D02*
X36289160Y-4062295D01*
X36289160Y-4062295D02*
X36670112Y-4062295D01*
X36974874Y-4062295D02*
X36974874Y-4709914D01*
X36974874Y-4709914D02*
X37012969Y-4786104D01*
X37012969Y-4786104D02*
X37051064Y-4824200D01*
X37051064Y-4824200D02*
X37127255Y-4862295D01*
X37127255Y-4862295D02*
X37279636Y-4862295D01*
X37279636Y-4862295D02*
X37355826Y-4824200D01*
X37355826Y-4824200D02*
X37393921Y-4786104D01*
X37393921Y-4786104D02*
X37432017Y-4709914D01*
X37432017Y-4709914D02*
X37432017Y-4062295D01*
X37812969Y-4443247D02*
X38079635Y-4443247D01*
X38193921Y-4862295D02*
X37812969Y-4862295D01*
X37812969Y-4862295D02*
X37812969Y-4062295D01*
X37812969Y-4062295D02*
X38193921Y-4062295D01*
X38917731Y-4862295D02*
X38536779Y-4862295D01*
X38536779Y-4862295D02*
X38536779Y-4062295D01*
X40212969Y-4100390D02*
X40136779Y-4062295D01*
X40136779Y-4062295D02*
X40022493Y-4062295D01*
X40022493Y-4062295D02*
X39908207Y-4100390D01*
X39908207Y-4100390D02*
X39832017Y-4176580D01*
X39832017Y-4176580D02*
X39793922Y-4252771D01*
X39793922Y-4252771D02*
X39755826Y-4405152D01*
X39755826Y-4405152D02*
X39755826Y-4519438D01*
X39755826Y-4519438D02*
X39793922Y-4671819D01*
X39793922Y-4671819D02*
X39832017Y-4748009D01*
X39832017Y-4748009D02*
X39908207Y-4824200D01*
X39908207Y-4824200D02*
X40022493Y-4862295D01*
X40022493Y-4862295D02*
X40098684Y-4862295D01*
X40098684Y-4862295D02*
X40212969Y-4824200D01*
X40212969Y-4824200D02*
X40251065Y-4786104D01*
X40251065Y-4786104D02*
X40251065Y-4519438D01*
X40251065Y-4519438D02*
X40098684Y-4519438D01*
X40555826Y-4633723D02*
X40936779Y-4633723D01*
X40479636Y-4862295D02*
X40746303Y-4062295D01*
X40746303Y-4062295D02*
X41012969Y-4862295D01*
X41279636Y-4062295D02*
X41279636Y-4709914D01*
X41279636Y-4709914D02*
X41317731Y-4786104D01*
X41317731Y-4786104D02*
X41355826Y-4824200D01*
X41355826Y-4824200D02*
X41432017Y-4862295D01*
X41432017Y-4862295D02*
X41584398Y-4862295D01*
X41584398Y-4862295D02*
X41660588Y-4824200D01*
X41660588Y-4824200D02*
X41698683Y-4786104D01*
X41698683Y-4786104D02*
X41736779Y-4709914D01*
X41736779Y-4709914D02*
X41736779Y-4062295D01*
X42536778Y-4100390D02*
X42460588Y-4062295D01*
X42460588Y-4062295D02*
X42346302Y-4062295D01*
X42346302Y-4062295D02*
X42232016Y-4100390D01*
X42232016Y-4100390D02*
X42155826Y-4176580D01*
X42155826Y-4176580D02*
X42117731Y-4252771D01*
X42117731Y-4252771D02*
X42079635Y-4405152D01*
X42079635Y-4405152D02*
X42079635Y-4519438D01*
X42079635Y-4519438D02*
X42117731Y-4671819D01*
X42117731Y-4671819D02*
X42155826Y-4748009D01*
X42155826Y-4748009D02*
X42232016Y-4824200D01*
X42232016Y-4824200D02*
X42346302Y-4862295D01*
X42346302Y-4862295D02*
X42422493Y-4862295D01*
X42422493Y-4862295D02*
X42536778Y-4824200D01*
X42536778Y-4824200D02*
X42574874Y-4786104D01*
X42574874Y-4786104D02*
X42574874Y-4519438D01*
X42574874Y-4519438D02*
X42422493Y-4519438D01*
X42917731Y-4443247D02*
X43184397Y-4443247D01*
X43298683Y-4862295D02*
X42917731Y-4862295D01*
X42917731Y-4862295D02*
X42917731Y-4062295D01*
X42917731Y-4062295D02*
X43298683Y-4062295D01*
X4498684Y-22949366D02*
X4598684Y-22982700D01*
X4598684Y-22982700D02*
X4632017Y-23016033D01*
X4632017Y-23016033D02*
X4665350Y-23082700D01*
X4665350Y-23082700D02*
X4665350Y-23182700D01*
X4665350Y-23182700D02*
X4632017Y-23249366D01*
X4632017Y-23249366D02*
X4598684Y-23282700D01*
X4598684Y-23282700D02*
X4532017Y-23316033D01*
X4532017Y-23316033D02*
X4265350Y-23316033D01*
X4265350Y-23316033D02*
X4265350Y-22616033D01*
X4265350Y-22616033D02*
X4498684Y-22616033D01*
X4498684Y-22616033D02*
X4565350Y-22649366D01*
X4565350Y-22649366D02*
X4598684Y-22682700D01*
X4598684Y-22682700D02*
X4632017Y-22749366D01*
X4632017Y-22749366D02*
X4632017Y-22816033D01*
X4632017Y-22816033D02*
X4598684Y-22882700D01*
X4598684Y-22882700D02*
X4565350Y-22916033D01*
X4565350Y-22916033D02*
X4498684Y-22949366D01*
X4498684Y-22949366D02*
X4265350Y-22949366D01*
X4932017Y-23116033D02*
X5265350Y-23116033D01*
X4865350Y-23316033D02*
X5098684Y-22616033D01*
X5098684Y-22616033D02*
X5332017Y-23316033D01*
X5465350Y-22616033D02*
X5865350Y-22616033D01*
X5665350Y-23316033D02*
X5665350Y-22616033D01*
X13298684Y-23316033D02*
X13432017Y-23316033D01*
X13432017Y-23316033D02*
X13498684Y-23282700D01*
X13498684Y-23282700D02*
X13532017Y-23249366D01*
X13532017Y-23249366D02*
X13598684Y-23149366D01*
X13598684Y-23149366D02*
X13632017Y-23016033D01*
X13632017Y-23016033D02*
X13632017Y-22749366D01*
X13632017Y-22749366D02*
X13598684Y-22682700D01*
X13598684Y-22682700D02*
X13565350Y-22649366D01*
X13565350Y-22649366D02*
X13498684Y-22616033D01*
X13498684Y-22616033D02*
X13365350Y-22616033D01*
X13365350Y-22616033D02*
X13298684Y-22649366D01*
X13298684Y-22649366D02*
X13265350Y-22682700D01*
X13265350Y-22682700D02*
X13232017Y-22749366D01*
X13232017Y-22749366D02*
X13232017Y-22916033D01*
X13232017Y-22916033D02*
X13265350Y-22982700D01*
X13265350Y-22982700D02*
X13298684Y-23016033D01*
X13298684Y-23016033D02*
X13365350Y-23049366D01*
X13365350Y-23049366D02*
X13498684Y-23049366D01*
X13498684Y-23049366D02*
X13565350Y-23016033D01*
X13565350Y-23016033D02*
X13598684Y-22982700D01*
X13598684Y-22982700D02*
X13632017Y-22916033D01*
X13832017Y-22616033D02*
X14065351Y-23316033D01*
X14065351Y-23316033D02*
X14298684Y-22616033D01*
X22198684Y-22616033D02*
X22632017Y-22616033D01*
X22632017Y-22616033D02*
X22398684Y-22882700D01*
X22398684Y-22882700D02*
X22498684Y-22882700D01*
X22498684Y-22882700D02*
X22565350Y-22916033D01*
X22565350Y-22916033D02*
X22598684Y-22949366D01*
X22598684Y-22949366D02*
X22632017Y-23016033D01*
X22632017Y-23016033D02*
X22632017Y-23182700D01*
X22632017Y-23182700D02*
X22598684Y-23249366D01*
X22598684Y-23249366D02*
X22565350Y-23282700D01*
X22565350Y-23282700D02*
X22498684Y-23316033D01*
X22498684Y-23316033D02*
X22298684Y-23316033D01*
X22298684Y-23316033D02*
X22232017Y-23282700D01*
X22232017Y-23282700D02*
X22198684Y-23249366D01*
X22832017Y-22616033D02*
X23065351Y-23316033D01*
X23065351Y-23316033D02*
X23298684Y-22616033D01*
X23465351Y-22616033D02*
X23898684Y-22616033D01*
X23898684Y-22616033D02*
X23665351Y-22882700D01*
X23665351Y-22882700D02*
X23765351Y-22882700D01*
X23765351Y-22882700D02*
X23832017Y-22916033D01*
X23832017Y-22916033D02*
X23865351Y-22949366D01*
X23865351Y-22949366D02*
X23898684Y-23016033D01*
X23898684Y-23016033D02*
X23898684Y-23182700D01*
X23898684Y-23182700D02*
X23865351Y-23249366D01*
X23865351Y-23249366D02*
X23832017Y-23282700D01*
X23832017Y-23282700D02*
X23765351Y-23316033D01*
X23765351Y-23316033D02*
X23565351Y-23316033D01*
X23565351Y-23316033D02*
X23498684Y-23282700D01*
X23498684Y-23282700D02*
X23465351Y-23249366D01*
X31265350Y-23316033D02*
X31265350Y-22616033D01*
X31565350Y-22682700D02*
X31598683Y-22649366D01*
X31598683Y-22649366D02*
X31665350Y-22616033D01*
X31665350Y-22616033D02*
X31832017Y-22616033D01*
X31832017Y-22616033D02*
X31898683Y-22649366D01*
X31898683Y-22649366D02*
X31932017Y-22682700D01*
X31932017Y-22682700D02*
X31965350Y-22749366D01*
X31965350Y-22749366D02*
X31965350Y-22816033D01*
X31965350Y-22816033D02*
X31932017Y-22916033D01*
X31932017Y-22916033D02*
X31532017Y-23316033D01*
X31532017Y-23316033D02*
X31965350Y-23316033D01*
X32665350Y-23249366D02*
X32632017Y-23282700D01*
X32632017Y-23282700D02*
X32532017Y-23316033D01*
X32532017Y-23316033D02*
X32465350Y-23316033D01*
X32465350Y-23316033D02*
X32365350Y-23282700D01*
X32365350Y-23282700D02*
X32298684Y-23216033D01*
X32298684Y-23216033D02*
X32265350Y-23149366D01*
X32265350Y-23149366D02*
X32232017Y-23016033D01*
X32232017Y-23016033D02*
X32232017Y-22916033D01*
X32232017Y-22916033D02*
X32265350Y-22782700D01*
X32265350Y-22782700D02*
X32298684Y-22716033D01*
X32298684Y-22716033D02*
X32365350Y-22649366D01*
X32365350Y-22649366D02*
X32465350Y-22616033D01*
X32465350Y-22616033D02*
X32532017Y-22616033D01*
X32532017Y-22616033D02*
X32632017Y-22649366D01*
X32632017Y-22649366D02*
X32665350Y-22682700D01*
X40265350Y-23316033D02*
X40265350Y-22616033D01*
X40265350Y-22616033D02*
X40498684Y-23116033D01*
X40498684Y-23116033D02*
X40732017Y-22616033D01*
X40732017Y-22616033D02*
X40732017Y-23316033D01*
X41198684Y-22616033D02*
X41332017Y-22616033D01*
X41332017Y-22616033D02*
X41398684Y-22649366D01*
X41398684Y-22649366D02*
X41465350Y-22716033D01*
X41465350Y-22716033D02*
X41498684Y-22849366D01*
X41498684Y-22849366D02*
X41498684Y-23082700D01*
X41498684Y-23082700D02*
X41465350Y-23216033D01*
X41465350Y-23216033D02*
X41398684Y-23282700D01*
X41398684Y-23282700D02*
X41332017Y-23316033D01*
X41332017Y-23316033D02*
X41198684Y-23316033D01*
X41198684Y-23316033D02*
X41132017Y-23282700D01*
X41132017Y-23282700D02*
X41065350Y-23216033D01*
X41065350Y-23216033D02*
X41032017Y-23082700D01*
X41032017Y-23082700D02*
X41032017Y-22849366D01*
X41032017Y-22849366D02*
X41065350Y-22716033D01*
X41065350Y-22716033D02*
X41132017Y-22649366D01*
X41132017Y-22649366D02*
X41198684Y-22616033D01*
X41698683Y-22616033D02*
X42098683Y-22616033D01*
X41898683Y-23316033D02*
X41898683Y-22616033D01*
X1666667Y45180D02*
X1666667Y1045180D01*
X1666667Y1045180D02*
X2000000Y330895D01*
X2000000Y330895D02*
X2333333Y1045180D01*
X2333333Y1045180D02*
X2333333Y45180D01*
X2809524Y45180D02*
X2809524Y1045180D01*
X2809524Y568990D02*
X3380952Y568990D01*
X3380952Y45180D02*
X3380952Y1045180D01*
X4380952Y45180D02*
X3809524Y45180D01*
X4095238Y45180D02*
X4095238Y1045180D01*
X4095238Y1045180D02*
X4000000Y902323D01*
X4000000Y902323D02*
X3904762Y807085D01*
X3904762Y807085D02*
X3809524Y759466D01*
X45666667Y45180D02*
X45666667Y1045180D01*
X45666667Y1045180D02*
X46000000Y330895D01*
X46000000Y330895D02*
X46333333Y1045180D01*
X46333333Y1045180D02*
X46333333Y45180D01*
X46809524Y45180D02*
X46809524Y1045180D01*
X46809524Y568990D02*
X47380952Y568990D01*
X47380952Y45180D02*
X47380952Y1045180D01*
X47809524Y949942D02*
X47857143Y997561D01*
X47857143Y997561D02*
X47952381Y1045180D01*
X47952381Y1045180D02*
X48190476Y1045180D01*
X48190476Y1045180D02*
X48285714Y997561D01*
X48285714Y997561D02*
X48333333Y949942D01*
X48333333Y949942D02*
X48380952Y854704D01*
X48380952Y854704D02*
X48380952Y759466D01*
X48380952Y759466D02*
X48333333Y616609D01*
X48333333Y616609D02*
X47761905Y45180D01*
X47761905Y45180D02*
X48380952Y45180D01*
X1666667Y-23954819D02*
X1666667Y-22954819D01*
X1666667Y-22954819D02*
X2000000Y-23669104D01*
X2000000Y-23669104D02*
X2333333Y-22954819D01*
X2333333Y-22954819D02*
X2333333Y-23954819D01*
X2809524Y-23954819D02*
X2809524Y-22954819D01*
X2809524Y-23431009D02*
X3380952Y-23431009D01*
X3380952Y-23954819D02*
X3380952Y-22954819D01*
X3761905Y-22954819D02*
X4380952Y-22954819D01*
X4380952Y-22954819D02*
X4047619Y-23335771D01*
X4047619Y-23335771D02*
X4190476Y-23335771D01*
X4190476Y-23335771D02*
X4285714Y-23383390D01*
X4285714Y-23383390D02*
X4333333Y-23431009D01*
X4333333Y-23431009D02*
X4380952Y-23526247D01*
X4380952Y-23526247D02*
X4380952Y-23764342D01*
X4380952Y-23764342D02*
X4333333Y-23859580D01*
X4333333Y-23859580D02*
X4285714Y-23907200D01*
X4285714Y-23907200D02*
X4190476Y-23954819D01*
X4190476Y-23954819D02*
X3904762Y-23954819D01*
X3904762Y-23954819D02*
X3809524Y-23907200D01*
X3809524Y-23907200D02*
X3761905Y-23859580D01*
X45666667Y-23954819D02*
X45666667Y-22954819D01*
X45666667Y-22954819D02*
X46000000Y-23669104D01*
X46000000Y-23669104D02*
X46333333Y-22954819D01*
X46333333Y-22954819D02*
X46333333Y-23954819D01*
X46809524Y-23954819D02*
X46809524Y-22954819D01*
X46809524Y-23431009D02*
X47380952Y-23431009D01*
X47380952Y-23954819D02*
X47380952Y-22954819D01*
X48285714Y-23288152D02*
X48285714Y-23954819D01*
X48047619Y-22907200D02*
X47809524Y-23621485D01*
X47809524Y-23621485D02*
X48428571Y-23621485D01*
X7028571Y-5062295D02*
X7028571Y-5709914D01*
X7028571Y-5709914D02*
X7066666Y-5786104D01*
X7066666Y-5786104D02*
X7104761Y-5824200D01*
X7104761Y-5824200D02*
X7180952Y-5862295D01*
X7180952Y-5862295D02*
X7333333Y-5862295D01*
X7333333Y-5862295D02*
X7409523Y-5824200D01*
X7409523Y-5824200D02*
X7447618Y-5786104D01*
X7447618Y-5786104D02*
X7485714Y-5709914D01*
X7485714Y-5709914D02*
X7485714Y-5062295D01*
X8285713Y-5862295D02*
X7828570Y-5862295D01*
X8057142Y-5862295D02*
X8057142Y-5062295D01*
X8057142Y-5062295D02*
X7980951Y-5176580D01*
X7980951Y-5176580D02*
X7904761Y-5252771D01*
X7904761Y-5252771D02*
X7828570Y-5290866D01*
X8971428Y-5862295D02*
X8971428Y-5443247D01*
X8971428Y-5443247D02*
X8933333Y-5367057D01*
X8933333Y-5367057D02*
X8857142Y-5328961D01*
X8857142Y-5328961D02*
X8704761Y-5328961D01*
X8704761Y-5328961D02*
X8628571Y-5367057D01*
X8971428Y-5824200D02*
X8895237Y-5862295D01*
X8895237Y-5862295D02*
X8704761Y-5862295D01*
X8704761Y-5862295D02*
X8628571Y-5824200D01*
X8628571Y-5824200D02*
X8590475Y-5748009D01*
X8590475Y-5748009D02*
X8590475Y-5671819D01*
X8590475Y-5671819D02*
X8628571Y-5595628D01*
X8628571Y-5595628D02*
X8704761Y-5557533D01*
X8704761Y-5557533D02*
X8895237Y-5557533D01*
X8895237Y-5557533D02*
X8971428Y-5519438D01*
X21390476Y-9062295D02*
X21390476Y-9709914D01*
X21390476Y-9709914D02*
X21428571Y-9786104D01*
X21428571Y-9786104D02*
X21466666Y-9824200D01*
X21466666Y-9824200D02*
X21542857Y-9862295D01*
X21542857Y-9862295D02*
X21695238Y-9862295D01*
X21695238Y-9862295D02*
X21771428Y-9824200D01*
X21771428Y-9824200D02*
X21809523Y-9786104D01*
X21809523Y-9786104D02*
X21847619Y-9709914D01*
X21847619Y-9709914D02*
X21847619Y-9062295D01*
X22647618Y-9862295D02*
X22190475Y-9862295D01*
X22419047Y-9862295D02*
X22419047Y-9062295D01*
X22419047Y-9062295D02*
X22342856Y-9176580D01*
X22342856Y-9176580D02*
X22266666Y-9252771D01*
X22266666Y-9252771D02*
X22190475Y-9290866D01*
X35390476Y-9062295D02*
X35390476Y-9709914D01*
X35390476Y-9709914D02*
X35428571Y-9786104D01*
X35428571Y-9786104D02*
X35466666Y-9824200D01*
X35466666Y-9824200D02*
X35542857Y-9862295D01*
X35542857Y-9862295D02*
X35695238Y-9862295D01*
X35695238Y-9862295D02*
X35771428Y-9824200D01*
X35771428Y-9824200D02*
X35809523Y-9786104D01*
X35809523Y-9786104D02*
X35847619Y-9709914D01*
X35847619Y-9709914D02*
X35847619Y-9062295D01*
X36571428Y-9328961D02*
X36571428Y-9862295D01*
X36380952Y-9024200D02*
X36190475Y-9595628D01*
X36190475Y-9595628D02*
X36685714Y-9595628D01*
X13733333Y-5443247D02*
X13466667Y-5443247D01*
X13466667Y-5862295D02*
X13466667Y-5062295D01*
X13466667Y-5062295D02*
X13847619Y-5062295D01*
X14571428Y-5862295D02*
X14114285Y-5862295D01*
X14342857Y-5862295D02*
X14342857Y-5062295D01*
X14342857Y-5062295D02*
X14266666Y-5176580D01*
X14266666Y-5176580D02*
X14190476Y-5252771D01*
X14190476Y-5252771D02*
X14114285Y-5290866D01*
X17466667Y-15786104D02*
X17428571Y-15824200D01*
X17428571Y-15824200D02*
X17314286Y-15862295D01*
X17314286Y-15862295D02*
X17238095Y-15862295D01*
X17238095Y-15862295D02*
X17123809Y-15824200D01*
X17123809Y-15824200D02*
X17047619Y-15748009D01*
X17047619Y-15748009D02*
X17009524Y-15671819D01*
X17009524Y-15671819D02*
X16971428Y-15519438D01*
X16971428Y-15519438D02*
X16971428Y-15405152D01*
X16971428Y-15405152D02*
X17009524Y-15252771D01*
X17009524Y-15252771D02*
X17047619Y-15176580D01*
X17047619Y-15176580D02*
X17123809Y-15100390D01*
X17123809Y-15100390D02*
X17238095Y-15062295D01*
X17238095Y-15062295D02*
X17314286Y-15062295D01*
X17314286Y-15062295D02*
X17428571Y-15100390D01*
X17428571Y-15100390D02*
X17466667Y-15138485D01*
X18076190Y-15443247D02*
X18190476Y-15481342D01*
X18190476Y-15481342D02*
X18228571Y-15519438D01*
X18228571Y-15519438D02*
X18266667Y-15595628D01*
X18266667Y-15595628D02*
X18266667Y-15709914D01*
X18266667Y-15709914D02*
X18228571Y-15786104D01*
X18228571Y-15786104D02*
X18190476Y-15824200D01*
X18190476Y-15824200D02*
X18114286Y-15862295D01*
X18114286Y-15862295D02*
X17809524Y-15862295D01*
X17809524Y-15862295D02*
X17809524Y-15062295D01*
X17809524Y-15062295D02*
X18076190Y-15062295D01*
X18076190Y-15062295D02*
X18152381Y-15100390D01*
X18152381Y-15100390D02*
X18190476Y-15138485D01*
X18190476Y-15138485D02*
X18228571Y-15214676D01*
X18228571Y-15214676D02*
X18228571Y-15290866D01*
X18228571Y-15290866D02*
X18190476Y-15367057D01*
X18190476Y-15367057D02*
X18152381Y-15405152D01*
X18152381Y-15405152D02*
X18076190Y-15443247D01*
X18076190Y-15443247D02*
X17809524Y-15443247D01*
X19028571Y-15862295D02*
X18571428Y-15862295D01*
X18800000Y-15862295D02*
X18800000Y-15062295D01*
X18800000Y-15062295D02*
X18723809Y-15176580D01*
X18723809Y-15176580D02*
X18647619Y-15252771D01*
X18647619Y-15252771D02*
X18571428Y-15290866D01*
X21466667Y-15786104D02*
X21428571Y-15824200D01*
X21428571Y-15824200D02*
X21314286Y-15862295D01*
X21314286Y-15862295D02*
X21238095Y-15862295D01*
X21238095Y-15862295D02*
X21123809Y-15824200D01*
X21123809Y-15824200D02*
X21047619Y-15748009D01*
X21047619Y-15748009D02*
X21009524Y-15671819D01*
X21009524Y-15671819D02*
X20971428Y-15519438D01*
X20971428Y-15519438D02*
X20971428Y-15405152D01*
X20971428Y-15405152D02*
X21009524Y-15252771D01*
X21009524Y-15252771D02*
X21047619Y-15176580D01*
X21047619Y-15176580D02*
X21123809Y-15100390D01*
X21123809Y-15100390D02*
X21238095Y-15062295D01*
X21238095Y-15062295D02*
X21314286Y-15062295D01*
X21314286Y-15062295D02*
X21428571Y-15100390D01*
X21428571Y-15100390D02*
X21466667Y-15138485D01*
X22076190Y-15443247D02*
X22190476Y-15481342D01*
X22190476Y-15481342D02*
X22228571Y-15519438D01*
X22228571Y-15519438D02*
X22266667Y-15595628D01*
X22266667Y-15595628D02*
X22266667Y-15709914D01*
X22266667Y-15709914D02*
X22228571Y-15786104D01*
X22228571Y-15786104D02*
X22190476Y-15824200D01*
X22190476Y-15824200D02*
X22114286Y-15862295D01*
X22114286Y-15862295D02*
X21809524Y-15862295D01*
X21809524Y-15862295D02*
X21809524Y-15062295D01*
X21809524Y-15062295D02*
X22076190Y-15062295D01*
X22076190Y-15062295D02*
X22152381Y-15100390D01*
X22152381Y-15100390D02*
X22190476Y-15138485D01*
X22190476Y-15138485D02*
X22228571Y-15214676D01*
X22228571Y-15214676D02*
X22228571Y-15290866D01*
X22228571Y-15290866D02*
X22190476Y-15367057D01*
X22190476Y-15367057D02*
X22152381Y-15405152D01*
X22152381Y-15405152D02*
X22076190Y-15443247D01*
X22076190Y-15443247D02*
X21809524Y-15443247D01*
X22571428Y-15138485D02*
X22609524Y-15100390D01*
X22609524Y-15100390D02*
X22685714Y-15062295D01*
X22685714Y-15062295D02*
X22876190Y-15062295D01*
X22876190Y-15062295D02*
X22952381Y-15100390D01*
X22952381Y-15100390D02*
X22990476Y-15138485D01*
X22990476Y-15138485D02*
X23028571Y-15214676D01*
X23028571Y-15214676D02*
X23028571Y-15290866D01*
X23028571Y-15290866D02*
X22990476Y-15405152D01*
X22990476Y-15405152D02*
X22533333Y-15862295D01*
X22533333Y-15862295D02*
X23028571Y-15862295D01*
X25466667Y-15786104D02*
X25428571Y-15824200D01*
X25428571Y-15824200D02*
X25314286Y-15862295D01*
X25314286Y-15862295D02*
X25238095Y-15862295D01*
X25238095Y-15862295D02*
X25123809Y-15824200D01*
X25123809Y-15824200D02*
X25047619Y-15748009D01*
X25047619Y-15748009D02*
X25009524Y-15671819D01*
X25009524Y-15671819D02*
X24971428Y-15519438D01*
X24971428Y-15519438D02*
X24971428Y-15405152D01*
X24971428Y-15405152D02*
X25009524Y-15252771D01*
X25009524Y-15252771D02*
X25047619Y-15176580D01*
X25047619Y-15176580D02*
X25123809Y-15100390D01*
X25123809Y-15100390D02*
X25238095Y-15062295D01*
X25238095Y-15062295D02*
X25314286Y-15062295D01*
X25314286Y-15062295D02*
X25428571Y-15100390D01*
X25428571Y-15100390D02*
X25466667Y-15138485D01*
X26076190Y-15443247D02*
X26190476Y-15481342D01*
X26190476Y-15481342D02*
X26228571Y-15519438D01*
X26228571Y-15519438D02*
X26266667Y-15595628D01*
X26266667Y-15595628D02*
X26266667Y-15709914D01*
X26266667Y-15709914D02*
X26228571Y-15786104D01*
X26228571Y-15786104D02*
X26190476Y-15824200D01*
X26190476Y-15824200D02*
X26114286Y-15862295D01*
X26114286Y-15862295D02*
X25809524Y-15862295D01*
X25809524Y-15862295D02*
X25809524Y-15062295D01*
X25809524Y-15062295D02*
X26076190Y-15062295D01*
X26076190Y-15062295D02*
X26152381Y-15100390D01*
X26152381Y-15100390D02*
X26190476Y-15138485D01*
X26190476Y-15138485D02*
X26228571Y-15214676D01*
X26228571Y-15214676D02*
X26228571Y-15290866D01*
X26228571Y-15290866D02*
X26190476Y-15367057D01*
X26190476Y-15367057D02*
X26152381Y-15405152D01*
X26152381Y-15405152D02*
X26076190Y-15443247D01*
X26076190Y-15443247D02*
X25809524Y-15443247D01*
X26533333Y-15062295D02*
X27028571Y-15062295D01*
X27028571Y-15062295D02*
X26761905Y-15367057D01*
X26761905Y-15367057D02*
X26876190Y-15367057D01*
X26876190Y-15367057D02*
X26952381Y-15405152D01*
X26952381Y-15405152D02*
X26990476Y-15443247D01*
X26990476Y-15443247D02*
X27028571Y-15519438D01*
X27028571Y-15519438D02*
X27028571Y-15709914D01*
X27028571Y-15709914D02*
X26990476Y-15786104D01*
X26990476Y-15786104D02*
X26952381Y-15824200D01*
X26952381Y-15824200D02*
X26876190Y-15862295D01*
X26876190Y-15862295D02*
X26647619Y-15862295D01*
X26647619Y-15862295D02*
X26571428Y-15824200D01*
X26571428Y-15824200D02*
X26533333Y-15786104D01*
X29466667Y-15786104D02*
X29428571Y-15824200D01*
X29428571Y-15824200D02*
X29314286Y-15862295D01*
X29314286Y-15862295D02*
X29238095Y-15862295D01*
X29238095Y-15862295D02*
X29123809Y-15824200D01*
X29123809Y-15824200D02*
X29047619Y-15748009D01*
X29047619Y-15748009D02*
X29009524Y-15671819D01*
X29009524Y-15671819D02*
X28971428Y-15519438D01*
X28971428Y-15519438D02*
X28971428Y-15405152D01*
X28971428Y-15405152D02*
X29009524Y-15252771D01*
X29009524Y-15252771D02*
X29047619Y-15176580D01*
X29047619Y-15176580D02*
X29123809Y-15100390D01*
X29123809Y-15100390D02*
X29238095Y-15062295D01*
X29238095Y-15062295D02*
X29314286Y-15062295D01*
X29314286Y-15062295D02*
X29428571Y-15100390D01*
X29428571Y-15100390D02*
X29466667Y-15138485D01*
X30076190Y-15443247D02*
X30190476Y-15481342D01*
X30190476Y-15481342D02*
X30228571Y-15519438D01*
X30228571Y-15519438D02*
X30266667Y-15595628D01*
X30266667Y-15595628D02*
X30266667Y-15709914D01*
X30266667Y-15709914D02*
X30228571Y-15786104D01*
X30228571Y-15786104D02*
X30190476Y-15824200D01*
X30190476Y-15824200D02*
X30114286Y-15862295D01*
X30114286Y-15862295D02*
X29809524Y-15862295D01*
X29809524Y-15862295D02*
X29809524Y-15062295D01*
X29809524Y-15062295D02*
X30076190Y-15062295D01*
X30076190Y-15062295D02*
X30152381Y-15100390D01*
X30152381Y-15100390D02*
X30190476Y-15138485D01*
X30190476Y-15138485D02*
X30228571Y-15214676D01*
X30228571Y-15214676D02*
X30228571Y-15290866D01*
X30228571Y-15290866D02*
X30190476Y-15367057D01*
X30190476Y-15367057D02*
X30152381Y-15405152D01*
X30152381Y-15405152D02*
X30076190Y-15443247D01*
X30076190Y-15443247D02*
X29809524Y-15443247D01*
X30952381Y-15328961D02*
X30952381Y-15862295D01*
X30761905Y-15024200D02*
X30571428Y-15595628D01*
X30571428Y-15595628D02*
X31066667Y-15595628D01*
X37466667Y-19786104D02*
X37428571Y-19824200D01*
X37428571Y-19824200D02*
X37314286Y-19862295D01*
X37314286Y-19862295D02*
X37238095Y-19862295D01*
X37238095Y-19862295D02*
X37123809Y-19824200D01*
X37123809Y-19824200D02*
X37047619Y-19748009D01*
X37047619Y-19748009D02*
X37009524Y-19671819D01*
X37009524Y-19671819D02*
X36971428Y-19519438D01*
X36971428Y-19519438D02*
X36971428Y-19405152D01*
X36971428Y-19405152D02*
X37009524Y-19252771D01*
X37009524Y-19252771D02*
X37047619Y-19176580D01*
X37047619Y-19176580D02*
X37123809Y-19100390D01*
X37123809Y-19100390D02*
X37238095Y-19062295D01*
X37238095Y-19062295D02*
X37314286Y-19062295D01*
X37314286Y-19062295D02*
X37428571Y-19100390D01*
X37428571Y-19100390D02*
X37466667Y-19138485D01*
X38076190Y-19443247D02*
X38190476Y-19481342D01*
X38190476Y-19481342D02*
X38228571Y-19519438D01*
X38228571Y-19519438D02*
X38266667Y-19595628D01*
X38266667Y-19595628D02*
X38266667Y-19709914D01*
X38266667Y-19709914D02*
X38228571Y-19786104D01*
X38228571Y-19786104D02*
X38190476Y-19824200D01*
X38190476Y-19824200D02*
X38114286Y-19862295D01*
X38114286Y-19862295D02*
X37809524Y-19862295D01*
X37809524Y-19862295D02*
X37809524Y-19062295D01*
X37809524Y-19062295D02*
X38076190Y-19062295D01*
X38076190Y-19062295D02*
X38152381Y-19100390D01*
X38152381Y-19100390D02*
X38190476Y-19138485D01*
X38190476Y-19138485D02*
X38228571Y-19214676D01*
X38228571Y-19214676D02*
X38228571Y-19290866D01*
X38228571Y-19290866D02*
X38190476Y-19367057D01*
X38190476Y-19367057D02*
X38152381Y-19405152D01*
X38152381Y-19405152D02*
X38076190Y-19443247D01*
X38076190Y-19443247D02*
X37809524Y-19443247D01*
X38990476Y-19062295D02*
X38609524Y-19062295D01*
X38609524Y-19062295D02*
X38571428Y-19443247D01*
X38571428Y-19443247D02*
X38609524Y-19405152D01*
X38609524Y-19405152D02*
X38685714Y-19367057D01*
X38685714Y-19367057D02*
X38876190Y-19367057D01*
X38876190Y-19367057D02*
X38952381Y-19405152D01*
X38952381Y-19405152D02*
X38990476Y-19443247D01*
X38990476Y-19443247D02*
X39028571Y-19519438D01*
X39028571Y-19519438D02*
X39028571Y-19709914D01*
X39028571Y-19709914D02*
X38990476Y-19786104D01*
X38990476Y-19786104D02*
X38952381Y-19824200D01*
X38952381Y-19824200D02*
X38876190Y-19862295D01*
X38876190Y-19862295D02*
X38685714Y-19862295D01*
X38685714Y-19862295D02*
X38609524Y-19824200D01*
X38609524Y-19824200D02*
X38571428Y-19786104D01*
X17866667Y-11786104D02*
X17828571Y-11824200D01*
X17828571Y-11824200D02*
X17714286Y-11862295D01*
X17714286Y-11862295D02*
X17638095Y-11862295D01*
X17638095Y-11862295D02*
X17523809Y-11824200D01*
X17523809Y-11824200D02*
X17447619Y-11748009D01*
X17447619Y-11748009D02*
X17409524Y-11671819D01*
X17409524Y-11671819D02*
X17371428Y-11519438D01*
X17371428Y-11519438D02*
X17371428Y-11405152D01*
X17371428Y-11405152D02*
X17409524Y-11252771D01*
X17409524Y-11252771D02*
X17447619Y-11176580D01*
X17447619Y-11176580D02*
X17523809Y-11100390D01*
X17523809Y-11100390D02*
X17638095Y-11062295D01*
X17638095Y-11062295D02*
X17714286Y-11062295D01*
X17714286Y-11062295D02*
X17828571Y-11100390D01*
X17828571Y-11100390D02*
X17866667Y-11138485D01*
X18628571Y-11862295D02*
X18171428Y-11862295D01*
X18400000Y-11862295D02*
X18400000Y-11062295D01*
X18400000Y-11062295D02*
X18323809Y-11176580D01*
X18323809Y-11176580D02*
X18247619Y-11252771D01*
X18247619Y-11252771D02*
X18171428Y-11290866D01*
X25866667Y-11786104D02*
X25828571Y-11824200D01*
X25828571Y-11824200D02*
X25714286Y-11862295D01*
X25714286Y-11862295D02*
X25638095Y-11862295D01*
X25638095Y-11862295D02*
X25523809Y-11824200D01*
X25523809Y-11824200D02*
X25447619Y-11748009D01*
X25447619Y-11748009D02*
X25409524Y-11671819D01*
X25409524Y-11671819D02*
X25371428Y-11519438D01*
X25371428Y-11519438D02*
X25371428Y-11405152D01*
X25371428Y-11405152D02*
X25409524Y-11252771D01*
X25409524Y-11252771D02*
X25447619Y-11176580D01*
X25447619Y-11176580D02*
X25523809Y-11100390D01*
X25523809Y-11100390D02*
X25638095Y-11062295D01*
X25638095Y-11062295D02*
X25714286Y-11062295D01*
X25714286Y-11062295D02*
X25828571Y-11100390D01*
X25828571Y-11100390D02*
X25866667Y-11138485D01*
X26171428Y-11138485D02*
X26209524Y-11100390D01*
X26209524Y-11100390D02*
X26285714Y-11062295D01*
X26285714Y-11062295D02*
X26476190Y-11062295D01*
X26476190Y-11062295D02*
X26552381Y-11100390D01*
X26552381Y-11100390D02*
X26590476Y-11138485D01*
X26590476Y-11138485D02*
X26628571Y-11214676D01*
X26628571Y-11214676D02*
X26628571Y-11290866D01*
X26628571Y-11290866D02*
X26590476Y-11405152D01*
X26590476Y-11405152D02*
X26133333Y-11862295D01*
X26133333Y-11862295D02*
X26628571Y-11862295D01*
X35866667Y-13786104D02*
X35828571Y-13824200D01*
X35828571Y-13824200D02*
X35714286Y-13862295D01*
X35714286Y-13862295D02*
X35638095Y-13862295D01*
X35638095Y-13862295D02*
X35523809Y-13824200D01*
X35523809Y-13824200D02*
X35447619Y-13748009D01*
X35447619Y-13748009D02*
X35409524Y-13671819D01*
X35409524Y-13671819D02*
X35371428Y-13519438D01*
X35371428Y-13519438D02*
X35371428Y-13405152D01*
X35371428Y-13405152D02*
X35409524Y-13252771D01*
X35409524Y-13252771D02*
X35447619Y-13176580D01*
X35447619Y-13176580D02*
X35523809Y-13100390D01*
X35523809Y-13100390D02*
X35638095Y-13062295D01*
X35638095Y-13062295D02*
X35714286Y-13062295D01*
X35714286Y-13062295D02*
X35828571Y-13100390D01*
X35828571Y-13100390D02*
X35866667Y-13138485D01*
X36133333Y-13062295D02*
X36628571Y-13062295D01*
X36628571Y-13062295D02*
X36361905Y-13367057D01*
X36361905Y-13367057D02*
X36476190Y-13367057D01*
X36476190Y-13367057D02*
X36552381Y-13405152D01*
X36552381Y-13405152D02*
X36590476Y-13443247D01*
X36590476Y-13443247D02*
X36628571Y-13519438D01*
X36628571Y-13519438D02*
X36628571Y-13709914D01*
X36628571Y-13709914D02*
X36590476Y-13786104D01*
X36590476Y-13786104D02*
X36552381Y-13824200D01*
X36552381Y-13824200D02*
X36476190Y-13862295D01*
X36476190Y-13862295D02*
X36247619Y-13862295D01*
X36247619Y-13862295D02*
X36171428Y-13824200D01*
X36171428Y-13824200D02*
X36133333Y-13786104D01*
X37866667Y-13786104D02*
X37828571Y-13824200D01*
X37828571Y-13824200D02*
X37714286Y-13862295D01*
X37714286Y-13862295D02*
X37638095Y-13862295D01*
X37638095Y-13862295D02*
X37523809Y-13824200D01*
X37523809Y-13824200D02*
X37447619Y-13748009D01*
X37447619Y-13748009D02*
X37409524Y-13671819D01*
X37409524Y-13671819D02*
X37371428Y-13519438D01*
X37371428Y-13519438D02*
X37371428Y-13405152D01*
X37371428Y-13405152D02*
X37409524Y-13252771D01*
X37409524Y-13252771D02*
X37447619Y-13176580D01*
X37447619Y-13176580D02*
X37523809Y-13100390D01*
X37523809Y-13100390D02*
X37638095Y-13062295D01*
X37638095Y-13062295D02*
X37714286Y-13062295D01*
X37714286Y-13062295D02*
X37828571Y-13100390D01*
X37828571Y-13100390D02*
X37866667Y-13138485D01*
X38552381Y-13328961D02*
X38552381Y-13862295D01*
X38361905Y-13024200D02*
X38171428Y-13595628D01*
X38171428Y-13595628D02*
X38666667Y-13595628D01*
X13866667Y-15786104D02*
X13828571Y-15824200D01*
X13828571Y-15824200D02*
X13714286Y-15862295D01*
X13714286Y-15862295D02*
X13638095Y-15862295D01*
X13638095Y-15862295D02*
X13523809Y-15824200D01*
X13523809Y-15824200D02*
X13447619Y-15748009D01*
X13447619Y-15748009D02*
X13409524Y-15671819D01*
X13409524Y-15671819D02*
X13371428Y-15519438D01*
X13371428Y-15519438D02*
X13371428Y-15405152D01*
X13371428Y-15405152D02*
X13409524Y-15252771D01*
X13409524Y-15252771D02*
X13447619Y-15176580D01*
X13447619Y-15176580D02*
X13523809Y-15100390D01*
X13523809Y-15100390D02*
X13638095Y-15062295D01*
X13638095Y-15062295D02*
X13714286Y-15062295D01*
X13714286Y-15062295D02*
X13828571Y-15100390D01*
X13828571Y-15100390D02*
X13866667Y-15138485D01*
X14590476Y-15062295D02*
X14209524Y-15062295D01*
X14209524Y-15062295D02*
X14171428Y-15443247D01*
X14171428Y-15443247D02*
X14209524Y-15405152D01*
X14209524Y-15405152D02*
X14285714Y-15367057D01*
X14285714Y-15367057D02*
X14476190Y-15367057D01*
X14476190Y-15367057D02*
X14552381Y-15405152D01*
X14552381Y-15405152D02*
X14590476Y-15443247D01*
X14590476Y-15443247D02*
X14628571Y-15519438D01*
X14628571Y-15519438D02*
X14628571Y-15709914D01*
X14628571Y-15709914D02*
X14590476Y-15786104D01*
X14590476Y-15786104D02*
X14552381Y-15824200D01*
X14552381Y-15824200D02*
X14476190Y-15862295D01*
X14476190Y-15862295D02*
X14285714Y-15862295D01*
X14285714Y-15862295D02*
X14209524Y-15824200D01*
X14209524Y-15824200D02*
X14171428Y-15786104D01*
X15866667Y-15786104D02*
X15828571Y-15824200D01*
X15828571Y-15824200D02*
X15714286Y-15862295D01*
X15714286Y-15862295D02*
X15638095Y-15862295D01*
X15638095Y-15862295D02*
X15523809Y-15824200D01*
X15523809Y-15824200D02*
X15447619Y-15748009D01*
X15447619Y-15748009D02*
X15409524Y-15671819D01*
X15409524Y-15671819D02*
X15371428Y-15519438D01*
X15371428Y-15519438D02*
X15371428Y-15405152D01*
X15371428Y-15405152D02*
X15409524Y-15252771D01*
X15409524Y-15252771D02*
X15447619Y-15176580D01*
X15447619Y-15176580D02*
X15523809Y-15100390D01*
X15523809Y-15100390D02*
X15638095Y-15062295D01*
X15638095Y-15062295D02*
X15714286Y-15062295D01*
X15714286Y-15062295D02*
X15828571Y-15100390D01*
X15828571Y-15100390D02*
X15866667Y-15138485D01*
X16552381Y-15062295D02*
X16400000Y-15062295D01*
X16400000Y-15062295D02*
X16323809Y-15100390D01*
X16323809Y-15100390D02*
X16285714Y-15138485D01*
X16285714Y-15138485D02*
X16209524Y-15252771D01*
X16209524Y-15252771D02*
X16171428Y-15405152D01*
X16171428Y-15405152D02*
X16171428Y-15709914D01*
X16171428Y-15709914D02*
X16209524Y-15786104D01*
X16209524Y-15786104D02*
X16247619Y-15824200D01*
X16247619Y-15824200D02*
X16323809Y-15862295D01*
X16323809Y-15862295D02*
X16476190Y-15862295D01*
X16476190Y-15862295D02*
X16552381Y-15824200D01*
X16552381Y-15824200D02*
X16590476Y-15786104D01*
X16590476Y-15786104D02*
X16628571Y-15709914D01*
X16628571Y-15709914D02*
X16628571Y-15519438D01*
X16628571Y-15519438D02*
X16590476Y-15443247D01*
X16590476Y-15443247D02*
X16552381Y-15405152D01*
X16552381Y-15405152D02*
X16476190Y-15367057D01*
X16476190Y-15367057D02*
X16323809Y-15367057D01*
X16323809Y-15367057D02*
X16247619Y-15405152D01*
X16247619Y-15405152D02*
X16209524Y-15443247D01*
X16209524Y-15443247D02*
X16171428Y-15519438D01*
X31866667Y-15786104D02*
X31828571Y-15824200D01*
X31828571Y-15824200D02*
X31714286Y-15862295D01*
X31714286Y-15862295D02*
X31638095Y-15862295D01*
X31638095Y-15862295D02*
X31523809Y-15824200D01*
X31523809Y-15824200D02*
X31447619Y-15748009D01*
X31447619Y-15748009D02*
X31409524Y-15671819D01*
X31409524Y-15671819D02*
X31371428Y-15519438D01*
X31371428Y-15519438D02*
X31371428Y-15405152D01*
X31371428Y-15405152D02*
X31409524Y-15252771D01*
X31409524Y-15252771D02*
X31447619Y-15176580D01*
X31447619Y-15176580D02*
X31523809Y-15100390D01*
X31523809Y-15100390D02*
X31638095Y-15062295D01*
X31638095Y-15062295D02*
X31714286Y-15062295D01*
X31714286Y-15062295D02*
X31828571Y-15100390D01*
X31828571Y-15100390D02*
X31866667Y-15138485D01*
X32133333Y-15062295D02*
X32666667Y-15062295D01*
X32666667Y-15062295D02*
X32323809Y-15862295D01*
X33866667Y-15786104D02*
X33828571Y-15824200D01*
X33828571Y-15824200D02*
X33714286Y-15862295D01*
X33714286Y-15862295D02*
X33638095Y-15862295D01*
X33638095Y-15862295D02*
X33523809Y-15824200D01*
X33523809Y-15824200D02*
X33447619Y-15748009D01*
X33447619Y-15748009D02*
X33409524Y-15671819D01*
X33409524Y-15671819D02*
X33371428Y-15519438D01*
X33371428Y-15519438D02*
X33371428Y-15405152D01*
X33371428Y-15405152D02*
X33409524Y-15252771D01*
X33409524Y-15252771D02*
X33447619Y-15176580D01*
X33447619Y-15176580D02*
X33523809Y-15100390D01*
X33523809Y-15100390D02*
X33638095Y-15062295D01*
X33638095Y-15062295D02*
X33714286Y-15062295D01*
X33714286Y-15062295D02*
X33828571Y-15100390D01*
X33828571Y-15100390D02*
X33866667Y-15138485D01*
X34323809Y-15405152D02*
X34247619Y-15367057D01*
X34247619Y-15367057D02*
X34209524Y-15328961D01*
X34209524Y-15328961D02*
X34171428Y-15252771D01*
X34171428Y-15252771D02*
X34171428Y-15214676D01*
X34171428Y-15214676D02*
X34209524Y-15138485D01*
X34209524Y-15138485D02*
X34247619Y-15100390D01*
X34247619Y-15100390D02*
X34323809Y-15062295D01*
X34323809Y-15062295D02*
X34476190Y-15062295D01*
X34476190Y-15062295D02*
X34552381Y-15100390D01*
X34552381Y-15100390D02*
X34590476Y-15138485D01*
X34590476Y-15138485D02*
X34628571Y-15214676D01*
X34628571Y-15214676D02*
X34628571Y-15252771D01*
X34628571Y-15252771D02*
X34590476Y-15328961D01*
X34590476Y-15328961D02*
X34552381Y-15367057D01*
X34552381Y-15367057D02*
X34476190Y-15405152D01*
X34476190Y-15405152D02*
X34323809Y-15405152D01*
X34323809Y-15405152D02*
X34247619Y-15443247D01*
X34247619Y-15443247D02*
X34209524Y-15481342D01*
X34209524Y-15481342D02*
X34171428Y-15557533D01*
X34171428Y-15557533D02*
X34171428Y-15709914D01*
X34171428Y-15709914D02*
X34209524Y-15786104D01*
X34209524Y-15786104D02*
X34247619Y-15824200D01*
X34247619Y-15824200D02*
X34323809Y-15862295D01*
X34323809Y-15862295D02*
X34476190Y-15862295D01*
X34476190Y-15862295D02*
X34552381Y-15824200D01*
X34552381Y-15824200D02*
X34590476Y-15786104D01*
X34590476Y-15786104D02*
X34628571Y-15709914D01*
X34628571Y-15709914D02*
X34628571Y-15557533D01*
X34628571Y-15557533D02*
X34590476Y-15481342D01*
X34590476Y-15481342D02*
X34552381Y-15443247D01*
X34552381Y-15443247D02*
X34476190Y-15405152D01*
X31866667Y-9862295D02*
X31600000Y-9481342D01*
X31409524Y-9862295D02*
X31409524Y-9062295D01*
X31409524Y-9062295D02*
X31714286Y-9062295D01*
X31714286Y-9062295D02*
X31790476Y-9100390D01*
X31790476Y-9100390D02*
X31828571Y-9138485D01*
X31828571Y-9138485D02*
X31866667Y-9214676D01*
X31866667Y-9214676D02*
X31866667Y-9328961D01*
X31866667Y-9328961D02*
X31828571Y-9405152D01*
X31828571Y-9405152D02*
X31790476Y-9443247D01*
X31790476Y-9443247D02*
X31714286Y-9481342D01*
X31714286Y-9481342D02*
X31409524Y-9481342D01*
X32628571Y-9862295D02*
X32171428Y-9862295D01*
X32400000Y-9862295D02*
X32400000Y-9062295D01*
X32400000Y-9062295D02*
X32323809Y-9176580D01*
X32323809Y-9176580D02*
X32247619Y-9252771D01*
X32247619Y-9252771D02*
X32171428Y-9290866D01*
X33866667Y-9862295D02*
X33600000Y-9481342D01*
X33409524Y-9862295D02*
X33409524Y-9062295D01*
X33409524Y-9062295D02*
X33714286Y-9062295D01*
X33714286Y-9062295D02*
X33790476Y-9100390D01*
X33790476Y-9100390D02*
X33828571Y-9138485D01*
X33828571Y-9138485D02*
X33866667Y-9214676D01*
X33866667Y-9214676D02*
X33866667Y-9328961D01*
X33866667Y-9328961D02*
X33828571Y-9405152D01*
X33828571Y-9405152D02*
X33790476Y-9443247D01*
X33790476Y-9443247D02*
X33714286Y-9481342D01*
X33714286Y-9481342D02*
X33409524Y-9481342D01*
X34171428Y-9138485D02*
X34209524Y-9100390D01*
X34209524Y-9100390D02*
X34285714Y-9062295D01*
X34285714Y-9062295D02*
X34476190Y-9062295D01*
X34476190Y-9062295D02*
X34552381Y-9100390D01*
X34552381Y-9100390D02*
X34590476Y-9138485D01*
X34590476Y-9138485D02*
X34628571Y-9214676D01*
X34628571Y-9214676D02*
X34628571Y-9290866D01*
X34628571Y-9290866D02*
X34590476Y-9405152D01*
X34590476Y-9405152D02*
X34133333Y-9862295D01*
X34133333Y-9862295D02*
X34628571Y-9862295D01*
X5733333Y-22562295D02*
X5733333Y-23133723D01*
X5733333Y-23133723D02*
X5695238Y-23248009D01*
X5695238Y-23248009D02*
X5619047Y-23324200D01*
X5619047Y-23324200D02*
X5504762Y-23362295D01*
X5504762Y-23362295D02*
X5428571Y-23362295D01*
X6533333Y-23362295D02*
X6076190Y-23362295D01*
X6304762Y-23362295D02*
X6304762Y-22562295D01*
X6304762Y-22562295D02*
X6228571Y-22676580D01*
X6228571Y-22676580D02*
X6152381Y-22752771D01*
X6152381Y-22752771D02*
X6076190Y-22790866D01*
X14733333Y-22562295D02*
X14733333Y-23133723D01*
X14733333Y-23133723D02*
X14695238Y-23248009D01*
X14695238Y-23248009D02*
X14619047Y-23324200D01*
X14619047Y-23324200D02*
X14504762Y-23362295D01*
X14504762Y-23362295D02*
X14428571Y-23362295D01*
X15076190Y-22638485D02*
X15114286Y-22600390D01*
X15114286Y-22600390D02*
X15190476Y-22562295D01*
X15190476Y-22562295D02*
X15380952Y-22562295D01*
X15380952Y-22562295D02*
X15457143Y-22600390D01*
X15457143Y-22600390D02*
X15495238Y-22638485D01*
X15495238Y-22638485D02*
X15533333Y-22714676D01*
X15533333Y-22714676D02*
X15533333Y-22790866D01*
X15533333Y-22790866D02*
X15495238Y-22905152D01*
X15495238Y-22905152D02*
X15038095Y-23362295D01*
X15038095Y-23362295D02*
X15533333Y-23362295D01*
X23733333Y-22562295D02*
X23733333Y-23133723D01*
X23733333Y-23133723D02*
X23695238Y-23248009D01*
X23695238Y-23248009D02*
X23619047Y-23324200D01*
X23619047Y-23324200D02*
X23504762Y-23362295D01*
X23504762Y-23362295D02*
X23428571Y-23362295D01*
X24038095Y-22562295D02*
X24533333Y-22562295D01*
X24533333Y-22562295D02*
X24266667Y-22867057D01*
X24266667Y-22867057D02*
X24380952Y-22867057D01*
X24380952Y-22867057D02*
X24457143Y-22905152D01*
X24457143Y-22905152D02*
X24495238Y-22943247D01*
X24495238Y-22943247D02*
X24533333Y-23019438D01*
X24533333Y-23019438D02*
X24533333Y-23209914D01*
X24533333Y-23209914D02*
X24495238Y-23286104D01*
X24495238Y-23286104D02*
X24457143Y-23324200D01*
X24457143Y-23324200D02*
X24380952Y-23362295D01*
X24380952Y-23362295D02*
X24152381Y-23362295D01*
X24152381Y-23362295D02*
X24076190Y-23324200D01*
X24076190Y-23324200D02*
X24038095Y-23286104D01*
X32733333Y-22562295D02*
X32733333Y-23133723D01*
X32733333Y-23133723D02*
X32695238Y-23248009D01*
X32695238Y-23248009D02*
X32619047Y-23324200D01*
X32619047Y-23324200D02*
X32504762Y-23362295D01*
X32504762Y-23362295D02*
X32428571Y-23362295D01*
X33457143Y-22828961D02*
X33457143Y-23362295D01*
X33266667Y-22524200D02*
X33076190Y-23095628D01*
X33076190Y-23095628D02*
X33571429Y-23095628D01*
X41733333Y-22562295D02*
X41733333Y-23133723D01*
X41733333Y-23133723D02*
X41695238Y-23248009D01*
X41695238Y-23248009D02*
X41619047Y-23324200D01*
X41619047Y-23324200D02*
X41504762Y-23362295D01*
X41504762Y-23362295D02*
X41428571Y-23362295D01*
X42495238Y-22562295D02*
X42114286Y-22562295D01*
X42114286Y-22562295D02*
X42076190Y-22943247D01*
X42076190Y-22943247D02*
X42114286Y-22905152D01*
X42114286Y-22905152D02*
X42190476Y-22867057D01*
X42190476Y-22867057D02*
X42380952Y-22867057D01*
X42380952Y-22867057D02*
X42457143Y-22905152D01*
X42457143Y-22905152D02*
X42495238Y-22943247D01*
X42495238Y-22943247D02*
X42533333Y-23019438D01*
X42533333Y-23019438D02*
X42533333Y-23209914D01*
X42533333Y-23209914D02*
X42495238Y-23286104D01*
X42495238Y-23286104D02*
X42457143Y-23324200D01*
X42457143Y-23324200D02*
X42380952Y-23362295D01*
X42380952Y-23362295D02*
X42190476Y-23362295D01*
X42190476Y-23362295D02*
X42114286Y-23324200D01*
X42114286Y-23324200D02*
X42076190Y-23286104D01*
M02*
