%TF.GenerationSoftware,KiCad,Pcbnew,10.0.3*%
%TF.CreationDate,2026-05-16T12:11:54+05:30*%
%TF.ProjectId,urine_dipstick_analyzer,7572696e-655f-4646-9970-737469636b5f,rev?*%
%TF.SameCoordinates,Original*%
%TF.FileFunction,Paste,Top*%
%TF.FilePolarity,Positive*%
%FSLAX46Y46*%
G04 Gerber Fmt 4.6, Leading zero omitted, Abs format (unit mm)*
G04 Created by KiCad (PCBNEW 10.0.3) date 2026-05-16 12:11:54*
%MOMM*%
%LPD*%
G01*
G04 APERTURE LIST*
G04 Aperture macros list*
%AMRoundRect*
0 Rectangle with rounded corners*
0 $1 Rounding radius*
0 $2 $3 $4 $5 $6 $7 $8 $9 X,Y pos of 4 corners*
0 Add a 4 corners polygon primitive as box body*
4,1,4,$2,$3,$4,$5,$6,$7,$8,$9,$2,$3,0*
0 Add four circle primitives for the rounded corners*
1,1,$1+$1,$2,$3*
1,1,$1+$1,$4,$5*
1,1,$1+$1,$6,$7*
1,1,$1+$1,$8,$9*
0 Add four rect primitives between the rounded corners*
20,1,$1+$1,$2,$3,$4,$5,0*
20,1,$1+$1,$4,$5,$6,$7,0*
20,1,$1+$1,$6,$7,$8,$9,0*
20,1,$1+$1,$8,$9,$2,$3,0*%
G04 Aperture macros list end*
%ADD10RoundRect,0.075000X-0.400000X-0.075000X0.400000X-0.075000X0.400000X0.075000X-0.400000X0.075000X0*%
%ADD11RoundRect,0.112500X-0.337500X-0.112500X0.337500X-0.112500X0.337500X0.112500X-0.337500X0.112500X0*%
%ADD12RoundRect,0.400000X-0.400000X-1.300000X0.400000X-1.300000X0.400000X1.300000X-0.400000X1.300000X0*%
%ADD13RoundRect,0.256250X-0.256250X-0.443750X0.256250X-0.443750X0.256250X0.443750X-0.256250X0.443750X0*%
%ADD14RoundRect,0.287500X-0.287500X-0.612500X0.287500X-0.612500X0.287500X0.612500X-0.287500X0.612500X0*%
%ADD15RoundRect,0.200000X-0.200000X-0.275000X0.200000X-0.275000X0.200000X0.275000X-0.200000X0.275000X0*%
G04 APERTURE END LIST*
D10*
%TO.C,U1*%
X20550000Y-11000000D03*
X20550000Y-11500000D03*
X20550000Y-12000000D03*
X20550000Y-12500000D03*
X20550000Y-13000000D03*
X23450000Y-11000000D03*
X23450000Y-11500000D03*
X23450000Y-12000000D03*
X23450000Y-12500000D03*
X23450000Y-13000000D03*
%TD*%
D11*
%TO.C,U4*%
X34600000Y-11025000D03*
X34600000Y-11675000D03*
X34600000Y-12325000D03*
X34600000Y-12975000D03*
X37400000Y-11025000D03*
X37400000Y-11675000D03*
X37400000Y-12325000D03*
X37400000Y-12975000D03*
%TD*%
D12*
%TO.C,F1*%
X12000000Y-8000000D03*
X16000000Y-8000000D03*
%TD*%
D13*
%TO.C,CB1*%
X17050000Y-18000000D03*
X18950000Y-18000000D03*
%TD*%
%TO.C,CB2*%
X21050000Y-18000000D03*
X22950000Y-18000000D03*
%TD*%
%TO.C,CB3*%
X25050000Y-18000000D03*
X26950000Y-18000000D03*
%TD*%
%TO.C,CB4*%
X29050000Y-18000000D03*
X30950000Y-18000000D03*
%TD*%
D14*
%TO.C,CB5*%
X36525000Y-22000000D03*
X39475000Y-22000000D03*
%TD*%
D15*
%TO.C,C1*%
X17175000Y-14000000D03*
X18825000Y-14000000D03*
%TD*%
%TO.C,C2*%
X25175000Y-14000000D03*
X26825000Y-14000000D03*
%TD*%
%TO.C,C3*%
X35175000Y-16000000D03*
X36825000Y-16000000D03*
%TD*%
%TO.C,C4*%
X37175000Y-16000000D03*
X38825000Y-16000000D03*
%TD*%
%TO.C,C5*%
X13175000Y-18000000D03*
X14825000Y-18000000D03*
%TD*%
%TO.C,C6*%
X15175000Y-18000000D03*
X16825000Y-18000000D03*
%TD*%
%TO.C,C7*%
X31175000Y-18000000D03*
X32825000Y-18000000D03*
%TD*%
%TO.C,C8*%
X33175000Y-18000000D03*
X34825000Y-18000000D03*
%TD*%
%TO.C,R1*%
X31175000Y-12000000D03*
X32825000Y-12000000D03*
%TD*%
%TO.C,R2*%
X33175000Y-12000000D03*
X34825000Y-12000000D03*
%TD*%
M02*
